<svg width="30" height="39" viewBox="0 0 30 39" fill="none" xmlns="http://www.w3.org/2000/svg">
<path d="M0.976379 25.0814C0.976379 11.8072 15 1.21454 15 1.21454C15 1.21454 29.0237 11.8072 29.0237 25.0814C29.0237 33.6614 21.9204 37.786 15 37.786C8.07958 37.786 0.976379 33.6614 0.976379 25.0814Z" stroke="black" stroke-linecap="round" stroke-linejoin="round"/>
<path d="M0.976379 25.0814C0.976379 11.8072 15 1.21454 15 1.21454C15 1.21454 29.0237 11.8072 29.0237 25.0814C29.0237 33.6614 21.9204 37.786 15 37.786C8.07958 37.786 0.976379 33.6614 0.976379 25.0814Z" stroke="black" stroke-opacity="0.2" stroke-linecap="round" stroke-linejoin="round"/>
<path d="M13.2251 16.6833C12.6219 16.6833 12.1329 17.1723 12.1329 17.7755V20.8476H9.06088C8.45766 20.8476 7.96863 21.3366 7.96863 21.9398V25.4896C7.96863 26.0929 8.45766 26.5819 9.06088 26.5819H12.1329V29.6537C12.1329 30.2571 12.6219 30.746 13.2251 30.746H16.7749C17.3782 30.746 17.8672 30.2571 17.8672 29.6537V26.5819H20.9391C21.5424 26.5819 22.0314 26.0929 22.0314 25.4896V21.9398C22.0314 21.3366 21.5424 20.8476 20.9391 20.8476H17.8672V17.7755C17.8672 17.1723 17.3782 16.6833 16.7749 16.6833H13.2251Z" stroke="black" stroke-linecap="round" stroke-linejoin="round"/>
</svg>
